# xmcd
#
# Track frame offsets:
#	150
#	16879
#	40207
#	62626
#	91490
#	108005
#	129617
#	151289
#	171854
#	183863
#	204828
#	226194
#	250143
#	266466
#	285082
#	306521
#	323268
#
# Disc length: 4525 seconds
#
# Revision: 1
# Processed by: cddbd v1.5.2PL0 Copyright (c) Steve Scherf et al.
# Submitted via: audiograbber 1.83.01
#
DISCID=ce11ab11
DTITLE=Sheryl Crow - Threads
DYEAR=2019
DGENRE=Country
TTITLE0=Prove You Wrong (with Stevie Nicks and Maren Morris)
TTITLE1=Live Wire (with Bonnie Raitt and Mavis Staples)
TTITLE2=Tell Me When It's Over (with Chris Stapleton)
TTITLE3=Story Of Everything (with Chuck D, Andra Day and Gary Clark Jr.)
TTITLE4=Beware Of Darkness (with Eric Clapton, Sting and Brandi Carlile)
TTITLE5=Redemption Day (with Johnny Cash)
TTITLE6=Cross Creek Road (with Lukas Nelson)
TTITLE7=Everything Is Broken (with Jason Isbell)
TTITLE8=The Worst (with Keith Richards)
TTITLE9=Lonely Alone (with Willie Nelson)
TTITLE10=Border Lord (with Kris Kristofferson)
TTITLE11=Still The Good Old Days (with Joe Walsh)
TTITLE12=Wouldn't Want To Be Like You (with St Vincent)
TTITLE13=Don't (with Lucius)
TTITLE14=Nobody's Perfect (with Emmylou Harris)
TTITLE15=Flying Blind (with James Taylor)
TTITLE16=For The Sake Of Love (with Vince Gill)
EXTD=
EXTT0=
EXTT1=
EXTT2=
EXTT3=
EXTT4=
EXTT5=
EXTT6=
EXTT7=
EXTT8=
EXTT9=
EXTT10=
EXTT11=
EXTT12=
EXTT13=
EXTT14=
EXTT15=
EXTT16=
PLAYORDER=
